<mxfile host="app.diagrams.net" modified="2024-04-10T11:23:30.527Z" agent="Mozilla/5.0 (Windows NT 10.0; Win64; x64) AppleWebKit/537.36 (KHTML, like Gecko) Chrome/123.0.0.0 Safari/537.36" etag="hxKuaj62E88ZYmOXtWor" version="24.2.3" type="github">
  <diagram name="Page-1" id="67c-IuIHaWsoTLQI89i3">
    <mxGraphModel dx="1280" dy="1356" grid="1" gridSize="10" guides="1" tooltips="1" connect="1" arrows="1" fold="1" page="0" pageScale="1" pageWidth="827" pageHeight="1169" math="0" shadow="0">
      <root>
        <mxCell id="0" />
        <mxCell id="1" parent="0" />
        <mxCell id="GJ9l2K7GDv_M9uER6P6X-1" value="" style="group;fontFamily=Courier New;" parent="1" vertex="1" connectable="0">
          <mxGeometry x="360" y="-463.92" width="150" height="55" as="geometry" />
        </mxCell>
        <mxCell id="GJ9l2K7GDv_M9uER6P6X-2" value="Admin" style="whiteSpace=wrap;html=1;fontFamily=Courier New;" parent="GJ9l2K7GDv_M9uER6P6X-1" vertex="1">
          <mxGeometry x="30" width="120" height="55" as="geometry" />
        </mxCell>
        <mxCell id="GJ9l2K7GDv_M9uER6P6X-3" value="D1" style="rounded=0;whiteSpace=wrap;html=1;fontFamily=Courier New;" parent="GJ9l2K7GDv_M9uER6P6X-1" vertex="1">
          <mxGeometry width="30" height="55" as="geometry" />
        </mxCell>
        <mxCell id="GJ9l2K7GDv_M9uER6P6X-4" value="&lt;font face=&quot;Courier New&quot;&gt;Library Admin&lt;/font&gt;" style="rounded=0;whiteSpace=wrap;html=1;" parent="1" vertex="1">
          <mxGeometry x="-230" y="-660" width="120" height="60" as="geometry" />
        </mxCell>
        <mxCell id="GJ9l2K7GDv_M9uER6P6X-5" value="" style="group;fontFamily=Courier New;" parent="1" vertex="1" connectable="0">
          <mxGeometry x="70" y="-711.0800000000002" width="110.50999999999999" height="111.0800000000001" as="geometry" />
        </mxCell>
        <mxCell id="GJ9l2K7GDv_M9uER6P6X-6" value="" style="shape=or;whiteSpace=wrap;html=1;rotation=-90;fontFamily=Courier New;" parent="GJ9l2K7GDv_M9uER6P6X-5" vertex="1">
          <mxGeometry x="24.960000000000036" y="-24.64999999999992" width="51.09" height="100.39" as="geometry" />
        </mxCell>
        <mxCell id="GJ9l2K7GDv_M9uER6P6X-7" value="" style="group;fontFamily=Courier New;" parent="GJ9l2K7GDv_M9uER6P6X-5" vertex="1" connectable="0">
          <mxGeometry y="21.080000000000098" width="110.50999999999999" height="90" as="geometry" />
        </mxCell>
        <mxCell id="GJ9l2K7GDv_M9uER6P6X-8" value="" style="rounded=0;whiteSpace=wrap;html=1;fontFamily=Courier New;" parent="GJ9l2K7GDv_M9uER6P6X-7" vertex="1">
          <mxGeometry y="30" width="100" height="60" as="geometry" />
        </mxCell>
        <mxCell id="GJ9l2K7GDv_M9uER6P6X-9" style="edgeStyle=none;curved=1;rounded=0;orthogonalLoop=1;jettySize=auto;html=1;exitX=0;exitY=0.5;exitDx=0;exitDy=0;fontSize=12;startSize=8;endSize=8;fontFamily=Courier New;" parent="GJ9l2K7GDv_M9uER6P6X-7" source="GJ9l2K7GDv_M9uER6P6X-8" target="GJ9l2K7GDv_M9uER6P6X-8" edge="1">
          <mxGeometry relative="1" as="geometry" />
        </mxCell>
        <mxCell id="GJ9l2K7GDv_M9uER6P6X-10" value="2.0" style="text;html=1;align=center;verticalAlign=middle;resizable=0;points=[];autosize=1;strokeColor=none;fillColor=none;fontSize=16;fontFamily=Courier New;" parent="GJ9l2K7GDv_M9uER6P6X-7" vertex="1">
          <mxGeometry x="25.50999999999999" width="50" height="30" as="geometry" />
        </mxCell>
        <mxCell id="GJ9l2K7GDv_M9uER6P6X-11" value="&lt;div style=&quot;font-size: 12px;&quot;&gt;&lt;font style=&quot;font-size: 12px;&quot;&gt;Fill out&amp;nbsp;&lt;/font&gt;&lt;/div&gt;&lt;div style=&quot;font-size: 12px;&quot;&gt;&lt;font style=&quot;font-size: 12px;&quot;&gt;login form&lt;/font&gt;&lt;/div&gt;" style="text;html=1;align=center;verticalAlign=middle;resizable=0;points=[];autosize=1;strokeColor=none;fillColor=none;fontSize=16;fontFamily=Courier New;" parent="GJ9l2K7GDv_M9uER6P6X-7" vertex="1">
          <mxGeometry x="0.5099999999999909" y="40" width="100" height="40" as="geometry" />
        </mxCell>
        <mxCell id="GJ9l2K7GDv_M9uER6P6X-13" value="" style="endArrow=classic;html=1;rounded=0;fontSize=12;startSize=8;endSize=8;curved=1;exitX=1;exitY=0.5;exitDx=0;exitDy=0;entryX=0;entryY=0.5;entryDx=0;entryDy=0;" parent="1" source="GJ9l2K7GDv_M9uER6P6X-4" target="GJ9l2K7GDv_M9uER6P6X-8" edge="1">
          <mxGeometry width="50" height="50" relative="1" as="geometry">
            <mxPoint x="-150" y="-680" as="sourcePoint" />
            <mxPoint x="-100" y="-730" as="targetPoint" />
          </mxGeometry>
        </mxCell>
        <mxCell id="GJ9l2K7GDv_M9uER6P6X-14" value="" style="group;fontFamily=Courier New;" parent="1" vertex="1" connectable="0">
          <mxGeometry x="70" y="-520.0000000000001" width="110.50999999999999" height="111.0800000000001" as="geometry" />
        </mxCell>
        <mxCell id="GJ9l2K7GDv_M9uER6P6X-15" value="" style="shape=or;whiteSpace=wrap;html=1;rotation=-90;fontFamily=Courier New;" parent="GJ9l2K7GDv_M9uER6P6X-14" vertex="1">
          <mxGeometry x="24.960000000000036" y="-24.64999999999992" width="51.09" height="100.39" as="geometry" />
        </mxCell>
        <mxCell id="GJ9l2K7GDv_M9uER6P6X-16" value="" style="group;fontFamily=Courier New;" parent="GJ9l2K7GDv_M9uER6P6X-14" vertex="1" connectable="0">
          <mxGeometry y="21.080000000000098" width="110.50999999999999" height="90" as="geometry" />
        </mxCell>
        <mxCell id="GJ9l2K7GDv_M9uER6P6X-17" value="" style="rounded=0;whiteSpace=wrap;html=1;fontFamily=Courier New;" parent="GJ9l2K7GDv_M9uER6P6X-16" vertex="1">
          <mxGeometry y="30" width="100" height="60" as="geometry" />
        </mxCell>
        <mxCell id="GJ9l2K7GDv_M9uER6P6X-18" style="edgeStyle=none;curved=1;rounded=0;orthogonalLoop=1;jettySize=auto;html=1;exitX=0;exitY=0.5;exitDx=0;exitDy=0;fontSize=12;startSize=8;endSize=8;fontFamily=Courier New;" parent="GJ9l2K7GDv_M9uER6P6X-16" source="GJ9l2K7GDv_M9uER6P6X-17" target="GJ9l2K7GDv_M9uER6P6X-17" edge="1">
          <mxGeometry relative="1" as="geometry" />
        </mxCell>
        <mxCell id="GJ9l2K7GDv_M9uER6P6X-19" value="2.1" style="text;html=1;align=center;verticalAlign=middle;resizable=0;points=[];autosize=1;strokeColor=none;fillColor=none;fontSize=16;fontFamily=Courier New;" parent="GJ9l2K7GDv_M9uER6P6X-16" vertex="1">
          <mxGeometry x="25.50999999999999" width="50" height="30" as="geometry" />
        </mxCell>
        <mxCell id="GJ9l2K7GDv_M9uER6P6X-20" value="&lt;div style=&quot;font-size: 15px;&quot;&gt;Verify User&lt;/div&gt;" style="text;html=1;align=center;verticalAlign=middle;resizable=0;points=[];autosize=1;strokeColor=none;fillColor=none;fontSize=16;fontFamily=Courier New;" parent="GJ9l2K7GDv_M9uER6P6X-16" vertex="1">
          <mxGeometry x="-9.490000000000009" y="45" width="120" height="30" as="geometry" />
        </mxCell>
        <mxCell id="GJ9l2K7GDv_M9uER6P6X-21" value="" style="group;fontFamily=Courier New;" parent="1" vertex="1" connectable="0">
          <mxGeometry x="70" y="-320.00000000000017" width="110.50999999999999" height="111.0800000000001" as="geometry" />
        </mxCell>
        <mxCell id="GJ9l2K7GDv_M9uER6P6X-22" value="" style="shape=or;whiteSpace=wrap;html=1;rotation=-90;fontFamily=Courier New;" parent="GJ9l2K7GDv_M9uER6P6X-21" vertex="1">
          <mxGeometry x="24.960000000000036" y="-24.64999999999992" width="51.09" height="100.39" as="geometry" />
        </mxCell>
        <mxCell id="GJ9l2K7GDv_M9uER6P6X-23" value="" style="group;fontFamily=Courier New;" parent="GJ9l2K7GDv_M9uER6P6X-21" vertex="1" connectable="0">
          <mxGeometry y="21.080000000000098" width="110.50999999999999" height="90" as="geometry" />
        </mxCell>
        <mxCell id="GJ9l2K7GDv_M9uER6P6X-24" value="" style="rounded=0;whiteSpace=wrap;html=1;fontFamily=Courier New;" parent="GJ9l2K7GDv_M9uER6P6X-23" vertex="1">
          <mxGeometry y="30" width="100" height="60" as="geometry" />
        </mxCell>
        <mxCell id="GJ9l2K7GDv_M9uER6P6X-25" style="edgeStyle=none;curved=1;rounded=0;orthogonalLoop=1;jettySize=auto;html=1;exitX=0;exitY=0.5;exitDx=0;exitDy=0;fontSize=12;startSize=8;endSize=8;fontFamily=Courier New;" parent="GJ9l2K7GDv_M9uER6P6X-23" source="GJ9l2K7GDv_M9uER6P6X-24" target="GJ9l2K7GDv_M9uER6P6X-24" edge="1">
          <mxGeometry relative="1" as="geometry" />
        </mxCell>
        <mxCell id="GJ9l2K7GDv_M9uER6P6X-26" value="2.3" style="text;html=1;align=center;verticalAlign=middle;resizable=0;points=[];autosize=1;strokeColor=none;fillColor=none;fontSize=16;fontFamily=Courier New;" parent="GJ9l2K7GDv_M9uER6P6X-23" vertex="1">
          <mxGeometry x="25.50999999999999" width="50" height="30" as="geometry" />
        </mxCell>
        <mxCell id="GJ9l2K7GDv_M9uER6P6X-27" value="&lt;div style=&quot;font-size: 15px;&quot;&gt;Admin&amp;nbsp;&lt;/div&gt;&lt;div style=&quot;font-size: 15px;&quot;&gt;Dashboard&lt;/div&gt;" style="text;html=1;align=center;verticalAlign=middle;resizable=0;points=[];autosize=1;strokeColor=none;fillColor=none;fontSize=16;fontFamily=Courier New;" parent="GJ9l2K7GDv_M9uER6P6X-23" vertex="1">
          <mxGeometry x="0.5099999999999909" y="35" width="100" height="50" as="geometry" />
        </mxCell>
        <mxCell id="GJ9l2K7GDv_M9uER6P6X-28" value="&lt;font face=&quot;Courier New&quot;&gt;admin&lt;/font&gt;&lt;div&gt;&lt;font face=&quot;Courier New&quot;&gt;pass&amp;nbsp;&lt;/font&gt;&lt;/div&gt;&lt;div&gt;&lt;font face=&quot;Courier New&quot;&gt;email&lt;/font&gt;&lt;/div&gt;" style="text;html=1;align=center;verticalAlign=middle;resizable=0;points=[];autosize=1;strokeColor=none;fillColor=none;fontSize=16;" parent="1" vertex="1">
          <mxGeometry x="-60" y="-711.08" width="70" height="80" as="geometry" />
        </mxCell>
        <mxCell id="GJ9l2K7GDv_M9uER6P6X-29" value="" style="endArrow=classic;html=1;rounded=0;fontSize=12;startSize=8;endSize=8;curved=1;exitX=0.5;exitY=1;exitDx=0;exitDy=0;entryX=1;entryY=0.5;entryDx=0;entryDy=0;entryPerimeter=0;" parent="1" source="GJ9l2K7GDv_M9uER6P6X-8" target="GJ9l2K7GDv_M9uER6P6X-15" edge="1">
          <mxGeometry width="50" height="50" relative="1" as="geometry">
            <mxPoint x="200" y="-480" as="sourcePoint" />
            <mxPoint x="250" y="-530" as="targetPoint" />
          </mxGeometry>
        </mxCell>
        <mxCell id="GJ9l2K7GDv_M9uER6P6X-30" value="" style="endArrow=classic;html=1;rounded=0;fontSize=12;startSize=8;endSize=8;curved=1;exitX=0.5;exitY=1;exitDx=0;exitDy=0;entryX=1;entryY=0.5;entryDx=0;entryDy=0;entryPerimeter=0;" parent="1" target="GJ9l2K7GDv_M9uER6P6X-22" edge="1">
          <mxGeometry width="50" height="50" relative="1" as="geometry">
            <mxPoint x="120" y="-408.91999999999996" as="sourcePoint" />
            <mxPoint x="121" y="-328.91999999999996" as="targetPoint" />
          </mxGeometry>
        </mxCell>
        <mxCell id="GJ9l2K7GDv_M9uER6P6X-31" value="&lt;font style=&quot;font-size: 13px;&quot;&gt;&lt;font style=&quot;font-size: 13px;&quot; face=&quot;Courier New&quot;&gt;user&amp;nbsp;&lt;/font&gt;&lt;span style=&quot;font-family: &amp;quot;Courier New&amp;quot;; background-color: initial;&quot;&gt;details&lt;/span&gt;&lt;/font&gt;" style="text;html=1;align=center;verticalAlign=middle;resizable=0;points=[];autosize=1;strokeColor=none;fillColor=none;fontSize=16;" parent="1" vertex="1">
          <mxGeometry x="74" y="-575" width="120" height="30" as="geometry" />
        </mxCell>
        <mxCell id="GJ9l2K7GDv_M9uER6P6X-32" value="&lt;font style=&quot;font-size: 13px;&quot; face=&quot;Courier New&quot;&gt;Granted access admin&lt;/font&gt;" style="text;html=1;align=center;verticalAlign=middle;resizable=0;points=[];autosize=1;strokeColor=none;fillColor=none;fontSize=16;" parent="1" vertex="1">
          <mxGeometry x="51" y="-380" width="180" height="30" as="geometry" />
        </mxCell>
        <mxCell id="GJ9l2K7GDv_M9uER6P6X-35" value="" style="endArrow=classic;html=1;rounded=0;fontSize=12;startSize=8;endSize=8;curved=1;exitX=1;exitY=0.371;exitDx=0;exitDy=0;exitPerimeter=0;entryX=0.022;entryY=0.308;entryDx=0;entryDy=0;entryPerimeter=0;" parent="1" source="GJ9l2K7GDv_M9uER6P6X-17" target="GJ9l2K7GDv_M9uER6P6X-3" edge="1">
          <mxGeometry width="50" height="50" relative="1" as="geometry">
            <mxPoint x="190" y="-400" as="sourcePoint" />
            <mxPoint x="360" y="-450" as="targetPoint" />
          </mxGeometry>
        </mxCell>
        <mxCell id="GJ9l2K7GDv_M9uER6P6X-36" value="&lt;font style=&quot;font-size: 13px;&quot; face=&quot;Courier New&quot;&gt;user details&lt;/font&gt;" style="text;html=1;align=center;verticalAlign=middle;resizable=0;points=[];autosize=1;strokeColor=none;fillColor=none;fontSize=16;" parent="1" vertex="1">
          <mxGeometry x="204" y="-470" width="120" height="30" as="geometry" />
        </mxCell>
        <mxCell id="GJ9l2K7GDv_M9uER6P6X-37" value="" style="endArrow=classic;html=1;rounded=0;fontSize=12;startSize=8;endSize=8;curved=1;exitX=-0.041;exitY=0.938;exitDx=0;exitDy=0;exitPerimeter=0;entryX=1.007;entryY=0.932;entryDx=0;entryDy=0;entryPerimeter=0;" parent="1" source="GJ9l2K7GDv_M9uER6P6X-3" target="GJ9l2K7GDv_M9uER6P6X-17" edge="1">
          <mxGeometry width="50" height="50" relative="1" as="geometry">
            <mxPoint x="250" y="-400" as="sourcePoint" />
            <mxPoint x="300" y="-450" as="targetPoint" />
          </mxGeometry>
        </mxCell>
        <mxCell id="GJ9l2K7GDv_M9uER6P6X-38" value="&lt;font style=&quot;font-size: 12px;&quot; face=&quot;Courier New&quot;&gt;verified admin details&lt;/font&gt;" style="text;html=1;align=center;verticalAlign=middle;resizable=0;points=[];autosize=1;strokeColor=none;fillColor=none;fontSize=16;" parent="1" vertex="1">
          <mxGeometry x="184" y="-440" width="180" height="30" as="geometry" />
        </mxCell>
      </root>
    </mxGraphModel>
  </diagram>
</mxfile>
